<svg version="1.1" id="Layer_1" xmlns="http://www.w3.org/2000/svg" xmlns:xlink="http://www.w3.org/1999/xlink" x="0px" y="0px"
	 width="100%" viewBox="0 0 384 352" enable-background="new 0 0 384 352" xml:space="preserve">
<path fill="#000000" opacity="1.000000" stroke="none" 
	d="
M163.383331,207.912598 
	C181.493011,207.839020 199.146698,206.848709 216.776321,208.591705 
	C227.771301,209.678741 237.288788,214.067307 245.472656,221.278519 
	C250.215729,225.457870 255.008499,229.740005 258.935547,234.650345 
	C265.436615,242.779266 274.109344,245.745621 283.807312,247.709122 
	C296.169159,250.211945 308.532074,252.837265 320.641754,256.469574 
	C335.108124,260.808716 346.501831,275.992371 347.464478,291.072388 
	C347.995636,299.393036 348.230621,307.689026 348.131165,316.001404 
	C348.030457,324.415588 346.042725,326.257721 337.716919,326.280548 
	C331.217712,326.298370 324.716278,326.389679 318.220123,326.250580 
	C315.167145,326.185242 313.451385,327.126892 312.230255,330.179596 
	C307.301300,342.501709 297.154968,349.370667 284.543976,349.365295 
	C272.067505,349.359955 262.496735,342.779236 257.489624,330.204407 
	C256.248932,327.088562 254.528976,326.292297 251.532333,326.298553 
	C223.369171,326.357361 195.205704,326.372742 167.042709,326.283386 
	C164.028656,326.273804 162.630569,327.445312 161.598251,330.179108 
	C157.061493,342.193359 147.974503,348.554352 135.423782,349.239166 
	C122.161072,349.962830 112.810516,343.327393 107.506989,331.419220 
	C105.698723,327.359039 103.478928,325.927856 99.219933,326.215851 
	C94.242630,326.552399 89.223747,326.416534 84.227608,326.294037 
	C78.705917,326.158691 76.688896,324.113617 76.676666,318.672119 
	C76.635468,300.340973 76.613663,282.009460 76.689522,263.678528 
	C76.721703,255.901688 81.828362,248.534470 89.409859,247.983261 
	C104.546631,246.882797 115.279137,239.197845 124.576706,228.105789 
	C132.710770,218.401825 143.000595,211.849915 155.544800,209.203018 
	C157.983170,208.688507 160.460617,208.359329 163.383331,207.912598 
M125.956459,243.456589 
	C119.277321,252.013626 110.747383,257.035706 99.702957,257.564392 
	C97.427216,257.673370 95.145866,258.500122 92.951012,259.243683 
	C90.432961,260.096771 88.466690,261.770905 88.457832,264.632507 
	C88.409912,280.117615 88.450806,295.603119 88.514305,311.088287 
	C88.521217,312.773529 88.759384,314.579041 91.121712,314.584625 
	C95.438210,314.594849 99.898628,315.441498 104.017632,314.040375 
	C107.132294,312.980927 107.160896,309.155975 108.520920,306.587494 
	C114.331619,295.613708 123.886429,291.085815 135.643600,291.357422 
	C148.192276,291.647339 156.901779,298.253967 161.370102,310.001648 
	C162.721329,313.554169 164.788879,314.739349 168.473694,314.724670 
	C195.953033,314.615051 223.433121,314.621887 250.912567,314.715546 
	C254.354187,314.727264 256.146179,313.676636 257.558502,310.296814 
	C262.677979,298.045624 273.162018,290.772125 284.811371,291.253723 
	C298.243591,291.809021 307.839874,298.086914 312.441895,311.056885 
	C313.358093,313.639008 314.793427,314.788055 317.572906,314.699982 
	C322.231415,314.552429 326.902100,314.541473 331.559875,314.700958 
	C334.833984,314.813110 336.034851,313.389954 335.967041,310.245911 
	C335.859283,305.252258 336.078491,300.250122 335.917755,295.259308 
	C335.441956,280.489014 327.333374,270.111023 312.969727,266.354797 
	C303.015228,263.751556 293.021820,261.036652 282.875275,259.491577 
	C269.011963,257.380554 257.166168,252.383713 248.460220,240.926941 
	C246.063583,237.773041 242.953995,235.142349 240.060547,232.388184 
	C233.009308,225.676407 224.858734,221.282516 214.995483,220.204208 
	C199.546127,218.515182 184.065094,219.525589 168.604843,219.525208 
	C154.936508,219.524887 143.473892,225.072098 134.206421,235.163071 
	C131.730255,237.859268 129.045242,240.363693 125.956459,243.456589 
M267.728394,323.590485 
	C268.445801,325.269562 269.006470,327.038239 269.906799,328.612732 
	C274.718048,337.026428 284.278992,340.044220 292.614929,335.814667 
	C299.231079,332.457764 305.475586,322.982361 300.493256,312.909790 
	C296.926941,305.699921 288.675690,301.475861 280.490265,303.431274 
	C271.982788,305.463562 265.912872,315.225189 267.728394,323.590485 
M129.772430,336.854950 
	C137.507843,339.297150 143.589569,336.276794 148.241302,330.463531 
	C152.676239,324.921143 153.017761,318.514252 149.524963,312.262848 
	C145.890640,305.758148 140.340210,302.445618 132.686920,303.097137 
	C125.135117,303.740021 118.560150,309.502563 117.394859,316.595825 
	C115.878845,325.824005 119.818092,332.631531 129.772430,336.854950 
z"/>
<path fill="#000000" opacity="1.000000" stroke="none" 
	d="
M332.007385,216.231964 
	C326.160370,212.896652 324.064301,208.667419 324.892548,202.394684 
	C326.162415,192.777191 326.172119,183.165573 324.870300,173.547791 
	C323.843384,165.961075 326.488342,161.771942 333.936707,159.043869 
	C343.829102,155.420624 343.819427,155.423874 340.445953,145.346237 
	C339.125366,141.401215 337.555725,137.506409 336.644409,133.465836 
	C335.484436,128.322647 332.711304,127.611115 328.295288,129.354950 
	C325.686859,130.385010 323.055054,131.328506 320.119537,131.422729 
	C315.678497,131.565231 312.224945,129.984970 310.033813,126.215576 
	C304.572388,116.820503 298.199249,108.131088 291.106384,99.891792 
	C286.178375,94.167282 286.575043,89.252907 291.547455,82.231758 
	C296.386902,75.398300 296.398865,75.382050 289.526459,70.343651 
	C285.228912,67.192947 280.822540,64.186882 276.592041,60.949871 
	C273.929810,58.912853 271.923645,58.989269 269.958679,61.853493 
	C259.902771,76.511696 256.312439,72.817268 244.540070,68.164757 
	C237.283554,65.296936 229.883591,62.748066 222.158295,61.254025 
	C214.729370,59.817299 211.766541,55.991371 211.679520,48.393063 
	C211.557190,37.713093 213.263443,38.109928 201.492386,38.112247 
	C196.160507,38.113297 190.828323,38.162678 185.496887,38.117249 
	C182.563766,38.092258 181.165146,39.419819 181.325928,42.365765 
	C181.353119,42.863766 181.319885,43.365192 181.311646,43.864983 
	C181.071365,58.423737 180.594559,58.948326 166.187469,62.385590 
	C158.555450,64.206444 151.271500,67.062965 144.049286,70.106735 
	C135.115875,73.871696 131.481689,72.784386 125.698441,64.940269 
	C120.706970,58.170086 120.683601,58.136871 113.722328,63.035187 
	C109.091080,66.293991 104.572670,69.713326 99.936455,72.964836 
	C97.487831,74.682129 97.228027,76.397514 99.168716,78.722198 
	C100.656029,80.503792 101.934448,82.483582 103.129868,84.480537 
	C106.560921,90.212151 106.363632,95.035004 101.937622,100.050117 
	C95.184700,107.701851 89.355850,115.964684 84.053856,124.666557 
	C80.025093,131.278748 75.429710,132.692780 67.835457,130.359299 
	C64.995750,129.486755 62.129421,128.700897 58.838875,127.749329 
	C55.396202,136.150742 53.085087,144.622482 50.615421,153.033981 
	C49.922775,155.393082 51.626667,156.301147 53.479092,156.937439 
	C57.097649,158.180374 60.708282,159.448639 64.347023,160.629944 
	C68.136955,161.860321 69.710846,164.611404 69.171227,168.322830 
	C67.514763,179.715820 66.865082,191.053284 68.155281,202.588959 
	C69.135414,211.352386 66.686577,214.183350 58.455009,216.952988 
	C57.034885,217.430817 55.632385,218.002914 54.175915,218.322769 
	C50.195518,219.196976 49.506668,221.505432 51.056431,224.954468 
	C51.464073,225.861694 51.643234,226.871948 52.054489,227.777130 
	C53.722900,231.449387 54.091930,234.128784 48.948299,235.489426 
	C42.620731,237.163254 42.712261,237.544556 40.642723,231.219681 
	C39.348774,227.265152 37.937519,223.340790 36.847687,219.329865 
	C35.619564,214.809998 36.956387,211.493607 41.832535,210.093033 
	C45.349339,209.082886 48.760307,207.666550 52.311790,206.825272 
	C56.042187,205.941605 57.149452,203.695297 56.613003,200.237823 
	C55.301708,191.786362 55.303413,183.344070 56.620285,174.890732 
	C57.106258,171.771164 55.825787,169.895584 52.640022,169.056198 
	C48.784863,168.040451 45.029850,166.648727 41.218567,165.461212 
	C37.142765,164.191284 35.429089,161.320404 36.663918,157.386703 
	C40.798283,144.216125 45.101307,131.096252 49.535748,118.023460 
	C50.931934,113.907471 54.585831,114.047295 57.944134,114.926430 
	C61.959404,115.977562 65.908798,117.337349 69.793633,118.809174 
	C72.278015,119.750404 73.740906,119.280167 75.069267,116.908508 
	C79.478661,109.035957 84.767075,101.761185 90.770508,95.025108 
	C92.745209,92.809402 92.921432,90.854286 91.024994,88.415627 
	C88.575310,85.265541 86.356766,81.922218 84.212296,78.551651 
	C81.508255,74.301559 82.055580,71.098930 86.066185,68.177757 
	C96.163071,60.823570 106.297737,53.519878 116.489716,46.298210 
	C121.880325,42.478626 124.611221,43.082348 128.518402,48.594131 
	C130.541458,51.448025 132.589661,54.285809 134.540237,57.188828 
	C136.087128,59.491055 137.849915,60.069862 140.472107,58.813671 
	C148.467453,54.983402 156.928970,52.493259 165.573608,50.639515 
	C168.657883,49.978130 170.135727,48.443882 169.988831,45.141193 
	C169.811432,41.152058 169.914001,37.144993 170.031540,33.149693 
	C170.160095,28.779713 172.543274,26.191917 176.876358,26.144760 
	C190.034912,26.001554 203.198486,25.936520 216.354584,26.162464 
	C220.786392,26.238577 223.302521,28.974779 223.270462,33.667355 
	C223.242004,37.832508 223.373947,41.999729 223.291656,46.163204 
	C223.238800,48.837738 224.534134,50.156757 227.022537,50.573059 
	C235.950195,52.066639 244.435638,55.015118 252.651886,58.698082 
	C255.569427,60.005882 257.253845,59.233875 258.909302,56.820957 
	C261.169464,53.526726 263.619659,50.361469 266.026428,47.169590 
	C268.832397,43.448257 272.186859,42.875214 275.977417,45.639587 
	C286.473236,53.293938 296.970398,60.946865 307.419006,68.665359 
	C311.207214,71.463753 311.286621,75.114571 308.952209,78.791054 
	C306.723419,82.301178 304.220001,85.648376 301.675629,88.942314 
	C300.176331,90.883308 300.271515,92.419510 301.878296,94.216499 
	C308.114990,101.191643 313.596313,108.728729 318.196960,116.881439 
	C319.482513,119.159485 321.026337,119.756142 323.540710,118.841553 
	C327.446320,117.420914 331.423065,116.151817 335.443848,115.102783 
	C340.714813,113.727592 342.744537,114.932098 344.448029,120.058159 
	C348.278412,131.584320 352.118866,143.107346 355.884613,154.654694 
	C358.078156,161.380920 356.852936,163.676331 350.353180,166.035233 
	C346.154663,167.558990 340.740723,167.441116 338.038727,170.927505 
	C335.272217,174.497147 337.772980,179.622452 337.396729,184.065704 
	C336.892059,190.025620 337.917328,196.057220 336.708557,202.002426 
	C336.126678,204.864258 338.090088,205.859924 340.215088,206.604446 
	C344.298615,208.035172 348.425323,209.342178 352.516815,210.750717 
	C356.356354,212.072464 357.666534,215.014328 356.645172,218.652481 
	C355.162384,223.934280 353.266724,229.103149 351.462189,234.290634 
	C350.034668,238.394333 347.233154,236.417862 344.920135,235.489899 
	C342.749237,234.618958 339.297668,235.021103 340.330505,230.620132 
	C342.808105,220.063217 342.676270,220.032288 332.007385,216.231964 
z"/>
<path fill="#000000" opacity="1.000000" stroke="none" 
	d="
M282.119049,110.891777 
	C307.749786,140.746445 316.097595,174.863403 308.917999,213.068832 
	C311.901123,212.962372 313.230927,210.496933 315.628143,209.961685 
	C318.330017,211.224960 319.385529,213.983994 320.883881,216.325958 
	C322.090363,218.211746 321.444641,219.778870 319.665924,221.018524 
	C313.790466,225.113403 308.074066,229.456879 302.028931,233.281860 
	C296.656372,236.681305 293.546356,235.344238 291.381195,229.322647 
	C289.241730,223.372437 287.096283,217.422287 285.108459,211.420776 
	C284.395386,209.267975 282.309753,206.274231 286.220520,205.302521 
	C289.463287,204.496750 293.494049,199.911041 296.130402,206.513565 
	C298.890900,204.272308 298.531769,201.202637 298.925140,198.356400 
	C301.460388,180.012085 298.246246,162.494705 290.541840,145.892731 
	C275.912140,114.367592 251.187592,94.830315 217.559097,86.853218 
	C204.564224,83.770653 191.201920,83.871048 178.009460,86.436554 
	C171.779144,87.648155 171.537292,89.062485 169.702377,80.660789 
	C169.428024,79.404587 168.741852,78.120956 169.538010,76.464058 
	C178.471008,73.856636 187.960342,72.791336 197.299286,72.960762 
	C210.060379,73.192268 222.728073,75.062599 234.928009,79.501709 
	C253.125046,86.122932 268.841644,96.308640 282.119049,110.891777 
z"/>
<path fill="#000000" opacity="1.000000" stroke="none" 
	d="
M84.742096,162.081329 
	C91.299576,135.044449 105.514519,113.347633 126.968040,96.511589 
	C125.463150,93.611832 120.926628,95.655991 120.786636,91.266777 
	C120.560410,84.173561 122.043877,82.710266 129.255051,83.368996 
	C135.197891,83.911865 141.186462,83.815666 147.130203,84.628403 
	C152.159485,85.316093 154.332382,87.944717 152.806152,92.839745 
	C150.680283,99.657875 148.191330,106.363586 145.816956,113.103027 
	C144.925491,115.633392 143.706757,118.007202 140.449997,116.158813 
	C137.738297,114.619774 132.131348,115.499908 134.376923,109.410049 
	C134.584213,108.847862 134.456711,108.162231 134.500183,107.184975 
	C131.554520,107.491158 129.826828,109.275246 128.064606,110.906677 
	C108.077843,129.409943 96.663208,152.034821 93.961792,179.319565 
	C92.465073,194.436661 94.660919,208.850540 99.723160,222.851379 
	C101.848618,228.729828 98.236717,229.197403 94.727615,230.683563 
	C90.560150,232.448563 89.662743,229.770294 88.537308,226.686096 
	C80.864296,205.658661 79.920425,184.258224 84.742096,162.081329 
z"/>
<path fill="#000000" opacity="1.000000" stroke="none" 
	d="
M215.435791,116.640671 
	C219.212112,121.046074 220.593597,125.829498 220.329422,131.235001 
	C220.189590,134.096710 218.420471,134.662231 216.307129,134.276581 
	C213.720322,133.804550 209.951828,136.233643 208.835876,131.693649 
	C206.477570,122.099174 201.217361,118.899521 191.696045,121.488571 
	C187.579285,122.608025 185.050659,125.486427 184.609909,129.630478 
	C184.192505,133.555054 185.981445,136.683746 189.511276,138.739655 
	C192.369751,140.404556 195.440521,140.658539 198.656509,140.688568 
	C209.946198,140.794006 218.485153,147.602341 220.188629,157.703568 
	C222.055145,168.771515 217.062012,177.658020 206.327469,181.864182 
	C203.619080,182.925400 202.125595,184.310623 202.364349,187.309937 
	C202.731277,191.919647 199.356720,191.155807 196.608765,191.217148 
	C193.775131,191.280426 190.460297,191.817291 190.731842,187.369141 
	C190.950119,183.793304 188.943649,182.491898 185.997070,181.403732 
	C177.917755,178.419998 172.692780,170.844727 172.655869,162.729385 
	C172.643036,159.906525 173.023621,157.508072 176.582108,157.922394 
	C179.603561,158.274185 183.937820,155.963409 184.414886,161.954590 
	C184.807541,166.885605 187.662186,170.502167 192.698837,171.303787 
	C197.812622,172.117661 203.199036,172.532089 206.732574,167.420868 
	C211.229050,160.916702 207.145248,152.893387 199.007538,152.334427 
	C195.023010,152.060745 191.038147,152.169464 187.163330,150.889969 
	C178.986084,148.189789 173.344833,141.049957 172.687653,132.373764 
	C172.014313,123.484268 176.655151,115.292442 184.645523,111.705009 
	C188.017212,110.191216 191.033340,109.303802 191.036087,104.265739 
	C191.038345,100.153831 195.424225,102.085419 197.946884,101.759529 
	C200.254333,101.461441 202.512924,101.872055 202.299255,105.002914 
	C202.062012,108.479126 203.700790,110.035912 206.942886,110.932030 
	C210.169937,111.823990 212.909546,113.837959 215.435791,116.640671 
z"/>
<path fill="#000000" opacity="1.000000" stroke="none" 
	d="
M63.812935,313.294800 
	C55.497936,313.290558 47.656689,313.023254 39.839127,313.340118 
	C35.239532,313.526581 34.635414,311.300262 34.691345,307.578522 
	C34.743778,304.089233 34.793747,301.386810 39.588459,301.575195 
	C47.241966,301.875916 54.915646,301.634766 62.579937,301.709869 
	C64.456146,301.728271 67.327934,301.207123 67.069458,304.139404 
	C66.794289,307.261169 69.972900,311.736511 63.812935,313.294800 
z"/>
<path fill="#000000" opacity="1.000000" stroke="none" 
	d="
M67.327164,287.920990 
	C67.512299,291.096222 66.345192,292.418671 63.552361,292.295502 
	C61.396854,292.200470 59.234184,292.249634 57.074871,292.262878 
	C50.624641,292.302460 50.826027,292.294250 50.593819,286.063049 
	C50.442322,281.997620 51.725121,280.130585 55.944237,280.678741 
	C57.415764,280.869934 58.930607,280.741791 60.425579,280.735962 
	C67.252945,280.709381 67.252930,280.706390 67.327164,287.920990 
z"/>
<path fill="#000000" opacity="1.000000" stroke="none" 
	d="
M186.999634,276.427612 
	C167.834152,276.427063 149.168716,276.417175 130.503326,276.437012 
	C128.143768,276.439514 125.743065,276.686035 124.380409,274.134155 
	C122.941940,271.440277 123.510269,268.782593 125.259903,266.638794 
	C130.727829,259.938934 136.375107,253.384613 141.997070,246.811676 
	C145.345535,242.896790 148.630066,238.905975 152.836075,235.834885 
	C158.656708,231.584793 165.369797,229.293442 172.372833,229.024567 
	C184.160339,228.572021 195.972824,228.168182 207.786987,229.425781 
	C217.671051,230.477905 225.425186,235.149261 231.810455,242.318634 
	C238.566727,249.904587 245.044449,257.739685 251.594772,265.507324 
	C253.457169,267.715851 255.023468,270.136749 253.696457,273.221466 
	C252.295959,276.476929 249.412598,276.354553 246.496170,276.353210 
	C226.830704,276.344238 207.165207,276.395569 186.999634,276.427612 
M226.349487,264.865936 
	C228.886841,264.636322 231.570999,265.474274 234.671631,263.778503 
	C229.575668,257.978943 225.080032,252.212494 219.901215,247.144104 
	C214.263046,241.626129 206.949677,240.062988 199.178696,240.391968 
	C195.916199,240.530106 194.311935,241.968399 194.374420,245.333557 
	C194.460846,249.988403 194.523346,254.651276 194.345993,259.301178 
	C194.191025,263.363647 195.870972,264.974915 199.946243,264.896149 
	C208.424484,264.732239 216.908295,264.855865 226.349487,264.865936 
M151.009048,254.487930 
	C148.960068,257.865234 144.854263,259.908630 144.083572,264.810730 
	C155.992096,264.810730 167.424561,264.808746 178.857010,264.812195 
	C181.577927,264.813019 182.719513,263.393555 182.694061,260.753204 
	C182.647659,255.938766 182.596359,251.122223 182.687988,246.309235 
	C182.767410,242.138138 180.928040,240.352676 176.695541,240.300049 
	C165.686707,240.163162 157.880096,245.719467 151.009048,254.487930 
z"/>
</svg>